<svg id="Layer_1" enable-background="new 0 0 512 512" height="512" viewBox="0 0 512 512" width="512" xmlns="http://www.w3.org/2000/svg"><g><circle cx="256" cy="256" fill="#97d729" r="256"/><g><path d="m120.447 2.083h34.458v239.46h-34.458z" fill="#f6a96c" transform="matrix(.873 -.488 .488 .873 -41.95 82.729)"/><path d="m122.032 8.162h9.557v239.46h-9.557z" fill="#e6975a" transform="matrix(.873 -.488 .488 .873 -46.302 78.198)"/><g fill="#965028"><path d="m105.653 29.289-22.944 29.565-11.4-20.376 22.943-29.565z"/><path d="m128.1 69.41-22.944 29.565-11.4-20.376 22.944-29.565z"/><path d="m150.547 109.531-22.944 29.565-11.4-20.376 22.944-29.565z"/><path d="m172.994 149.652-22.943 29.565-11.401-20.376 22.944-29.565z"/><path d="m195.441 189.773-22.943 29.565-11.4-20.376 22.943-29.565z"/></g><path d="m77.672 30.278-6.363 8.2 11.4 20.376 6.363-8.2z" fill="#824523"/><path d="m100.119 70.399-6.363 8.2 11.4 20.376 6.363-8.2z" fill="#824523"/><path d="m122.566 110.52-6.363 8.2 11.4 20.376 6.363-8.2z" fill="#824523"/><path d="m145.013 150.641-6.363 8.2 11.401 20.376 6.363-8.199z" fill="#824523"/><path d="m167.461 190.762-6.364 8.2 11.401 20.376 6.363-8.199z" fill="#824523"/><path d="m211.172 217.889-4.684-8.371-15.074 19.425z" fill="#965028"/></g><g><path d="m90.436 399.337h335.818v30.777h-335.818z" fill="#ffebb4"/><path d="m90.436 399.337h72.499v30.777h-72.499z" fill="#f0d897"/><path d="m432.701 415.322h-348.712c-17.656 0-31.97-14.313-31.97-31.97h412.652c0 17.657-14.314 31.97-31.97 31.97z" fill="#fffad7"/><path d="m105.768 383.352h-53.749c0 17.656 14.313 31.97 31.97 31.97h53.749c-17.657 0-31.97-14.313-31.97-31.97z" fill="#ffebb4"/></g><path d="m105.354 166.412h320.9v216.941h-320.9z" fill="#f6a96c"/><path d="m105.354 166.412h80.4v216.941h-80.4z" fill="#e6975a"/><path d="m105.354 312.912h320.9v23.204h-320.9z" fill="#fd4755"/><path d="m105.354 246.174h320.9v23.204h-320.9z" fill="#fffad7"/><path d="m105.354 312.911h64.645v23.204h-64.645z" fill="#e33442"/><path d="m105.354 246.174h64.645v23.204h-64.645z" fill="#ffebb4"/><path d="m105.354 166.412v34.397h229.63v182.543h91.27v-216.94z" fill="#965028"/><path d="m105.354 166.412h80.4v34.398h-80.4z" fill="#824523"/><path d="m334.984 166.412h26.163v216.941h-26.163z" fill="#824523"/><g><g><path d="m382.901 124.578c3.841-3.806 6.224-9.082 6.224-14.917 0-11.249-8.852-20.406-19.966-20.95-.409-22.05-28.193-37.224-28.193-37.224-4.508 10.002-15.713 11.061-32.283 18.644-7.857 3.596-6.412 11.358-2.722 18.529h-1.936c-11.599 0-21.002 9.403-21.002 21.002 0 5.867 2.411 11.166 6.29 14.977-10.198 1.438-18.051 10.176-18.051 20.771 0 11.599 9.403 21.002 21.002 21.002h88.081c11.599 0 21.002-9.403 21.002-21.002 0-10.733-8.055-19.569-18.446-20.832z" fill="#fffad7"/><g fill="#ffebb4"><path d="m323.838 78.231h1.936c-2.562-4.979-4.034-10.24-2.068-14.197-4.353 1.683-9.366 3.508-15.022 6.096-7.775 3.558-6.438 11.196-2.833 18.303 3.673-6.104 10.343-10.202 17.987-10.202z"/><path d="m312.076 155.984c-11.599 0-21.002-9.403-21.002-21.002 0-10.595 7.853-19.333 18.051-20.771-3.879-3.811-6.29-9.11-6.29-14.977 0-3.861 1.06-7.466 2.877-10.575h-1.688c-11.599 0-21.002 9.403-21.002 21.002 0 5.867 2.411 11.166 6.29 14.977-10.198 1.438-18.051 10.176-18.051 20.771 0 11.599 9.403 21.002 21.002 21.002h88.081c7.738 0 14.482-4.197 18.125-10.428h-86.393z"/></g></g><circle cx="271.262" cy="134.227" fill="#fd4755" r="32.185"/><path d="m253.676 134.227c0-15.263 10.628-28.035 24.885-31.343-2.346-.544-4.787-.842-7.299-.842-17.775 0-32.185 14.409-32.185 32.185s14.409 32.185 32.185 32.185c2.512 0 4.953-.297 7.299-.842-14.257-3.308-24.885-16.08-24.885-31.343z" fill="#e33442"/><path d="m273.979 110.605s2.981-19.748 14.687-35.113c6.397-8.396 15.4-15.483 27.946-17.323" fill="none" stroke="#965028" stroke-linecap="round" stroke-miterlimit="10" stroke-width="6.257"/></g></g></svg>